# xmcd
#
# Track frame offsets: 
#        150
#        15310
#        32248
#        60395
#        81408
#        91430
#        120040
#        139658
#        151160
#        182988
#        203795
#        213590
#
# Disc length: 3198 seconds
#
# Revision: 2
# Processed by: cddbd v1.5.2PL0 Copyright (c) Steve Scherf et al.
# Submitted via: ExactAudioCopy v1.0b1
#
DISCID=970c7c0c
DTITLE=TOMMY FLANAGAN - The Complete Overseas
DYEAR=1957
DGENRE=Jazz
TTITLE0=Relaxin' At Camarillo
TTITLE1=Chelsea Bridge
TTITLE2=Eclypso
TTITLE3=Dalarna Take 3
TTITLE4=Verdand Take 1
TTITLE5=Willow Weep For Me Take 2
TTITLE6=Beats Up
TTITLE7=Skal Brothers
TTITLE8=Little Rock
TTITLE9=Dalarna Take 2
TTITLE10=Verdandi Take 2
TTITLE11=Willow Weep For Me Take 1
EXTD=YEAR: 1957 ID3G: 8
EXTT0=
EXTT1=
EXTT2=
EXTT3=
EXTT4=
EXTT5=
EXTT6=
EXTT7=
EXTT8=
EXTT9=
EXTT10=
EXTT11=
PLAYORDER=
